<svg xmlns:xlink="http://www.w3.org/1999/xlink" xmlns="http://www.w3.org/2000/svg" viewBox="0 0 512 512" width="512"  height="512" ><path d="m256 0c36.8 0 68.8 20.7 84.9 51.1 32.9-10.1 70.1-2.1 96.1 23.9s34 63.3 23.9 96.1c30.4 16.1 51.1 48.1 51.1 84.9s-20.7 68.8-51.1 84.9c10.1 32.9 2.1 70.1-23.9 96.1s-63.3 34-96.1 23.9c-16.1 30.4-48.1 51.1-84.9 51.1s-68.8-20.7-84.9-51.1c-32.9 10.1-70.1 2.1-96.1-23.9s-34-63.3-23.9-96.1c-30.4-16.1-51.1-48.1-51.1-84.9s20.7-68.8 51.1-84.9c-10.1-32.9-2.1-70.1 23.9-96.1s63.3-34 96.1-23.9c16.1-30.4 48.1-51.1 84.9-51.1zm113 209c9.4-9.4 9.4-24.6 0-33.9s-24.6-9.4-33.9 0l-111 111-47-47c-9.4-9.4-24.6-9.4-33.9 0s-9.4 24.6 0 33.9l64 64c9.4 9.4 24.6 9.4 33.9 0z" fill="#016EF9"></path></svg>