<svg xmlns:xlink="http://www.w3.org/1999/xlink" xmlns="http://www.w3.org/2000/svg" height="512" viewBox="0 0 512.007 512.007" width="512"><g fill="#FFFFFF"><path d="m510.025 139.609-85.333-102.4a8.547 8.547 0 0 0 -6.554-3.063h-324.267a8.524 8.524 0 0 0 -6.554 3.063l-85.333 102.4a8.512 8.512 0 0 0 -1.178 9.079 8.55 8.55 0 0 0 7.731 4.915h494.933a8.55 8.55 0 0 0 7.731-4.915 8.53 8.53 0 0 0 -1.176-9.079zm-483.268-3.072 71.108-85.333h316.271l71.108 85.333z" fill="#FFFFFF"></path><path d="m263.898 39.402a8.535 8.535 0 0 0 -7.885-5.265h-162.133c-3.055 0-5.871 1.63-7.398 4.284s-1.519 5.905.026 8.55l59.733 102.4a8.541 8.541 0 0 0 6.272 4.164c.367.043.734.068 1.092.068a8.539 8.539 0 0 0 6.042-2.5l102.4-102.4a8.532 8.532 0 0 0 1.851-9.301zm-108.501 91.81-46.669-80.008h126.677z" fill="#FFFFFF"></path><path d="m511.109 141.281a8.527 8.527 0 0 0 -7.646-4.753h-494.933a8.536 8.536 0 0 0 -7.646 4.753 8.537 8.537 0 0 0 .87 8.96l247.467 324.267c1.613 2.116 4.122 3.362 6.784 3.362s5.171-1.246 6.767-3.362l247.467-324.267a8.54 8.54 0 0 0 .87-8.96zm-255.104 313.993-230.221-301.67h460.442z" fill="#FFFFFF"></path><path d="m264.146 466.76-102.4-324.267a8.538 8.538 0 0 0 -8.141-5.965h-145.067a8.536 8.536 0 0 0 -7.646 4.753 8.537 8.537 0 0 0 .87 8.96l247.467 324.267a8.517 8.517 0 0 0 6.784 3.362 8.297 8.297 0 0 0 3.925-.973 8.53 8.53 0 0 0 4.208-10.137zm-238.362-313.156h121.566l85.811 271.736zm399.753-115.183a8.52 8.52 0 0 0 -7.398-4.284h-162.134a8.53 8.53 0 0 0 -6.033 14.566l102.4 102.4a8.503 8.503 0 0 0 6.033 2.5c.367 0 .734-.026 1.101-.068a8.531 8.531 0 0 0 6.272-4.164l59.733-102.4a8.55 8.55 0 0 0 .026-8.55zm-68.924 92.791-80.009-80.008h126.677z" fill="#FFFFFF"></path><path d="m511.126 141.299a8.527 8.527 0 0 0 -7.646-4.753h-145.067a8.53 8.53 0 0 0 -8.141 5.965l-102.4 324.267a8.539 8.539 0 0 0 4.207 10.138 8.493 8.493 0 0 0 3.925.956 8.574 8.574 0 0 0 6.784-3.345l247.467-324.267a8.54 8.54 0 0 0 .871-8.961zm-232.277 284.04 85.811-271.736h121.566z" fill="#FFFFFF"></path></g></svg>